# xmcd
#
# Track frame offsets:
#	150
#	29886
#	51769
#	88498
#	117954
#
# Disc length: 2127 seconds
#
# Revision: 1
# Processed by: cddbd v1.5.2PL0 Copyright (c) Steve Scherf et al.
# Submitted via: audiograbber 1.83.01
#
DISCID=46084d05
DTITLE=Thank You - Terrible Two
DYEAR=2008
DGENRE=Rock
TTITLE0=Empty Legs
TTITLE1=Embryo Imbroglio
TTITLE2=Self with Yourself
TTITLE3=Pregnant Friends
TTITLE4=Terrible Two
EXTD=
EXTT0=
EXTT1=
EXTT2=
EXTT3=
EXTT4=
PLAYORDER=
